<?xml version="1.0" encoding="UTF-8"?>
<svg width="50px" height="50px" version="1.1" viewBox="0 0 109.32 66.663" xmlns="http://www.w3.org/2000/svg">
 <path fill="#FFFFFF" d="m109.26 66.26c0.35961-0.35961-0.51424-3.1286-8.2872-26.26-4.7791-14.222-9.7572-29.013-11.063-32.869l-2.3733-7.0115h-21.311l-2.2074 6.4823c-1.2141 3.5653-3.7757 11.185-5.6924 16.933-1.9167 5.7481-3.5266 10.501-3.5775 10.561-0.0509 0.0606-0.15803 0.0447-0.23814-0.0354-0.0801-0.0801-2.678-7.6698-5.773-16.866-3.095-9.1962-5.7977-16.828-6.0059-16.96-0.47556-0.30095-20.097-0.31917-20.57-0.0191-0.19122 0.12125-1.403 3.3639-2.6929 7.2058-1.2899 3.842-6.2266 18.529-10.97 32.639-4.7438 14.109-8.5662 25.807-8.494 25.995 0.10399 0.27101 2.2127 0.34177 10.184 0.34177 9.3095 0 10.07-0.0342 10.286-0.46302 0.1278-0.25466 2.8366-8.2318 6.0195-17.727 3.1829-9.4952 5.8662-17.264 5.9629-17.264 0.0967 0 1.1462 2.8873 2.3322 6.4162s3.8614 11.476 5.9452 17.661l3.7888 11.245 20.171 0.1386 0.36559-0.73074c0.20107-0.40191 2.9135-8.3195 6.0277-17.595 3.1142-9.2751 5.7216-16.864 5.7944-16.864 0.0728-2e-5 2.7342 7.7673 5.9144 17.261 3.9314 11.736 5.9521 17.409 6.3132 17.724 0.48482 0.42272 1.3673 0.46302 10.14 0.46302 8.2431 0 9.6662-0.0572 10.011-0.402z" stroke-width=".26458"/>
</svg>
