<svg id="SvgjsSvg1001" width="288" height="288" xmlns="http://www.w3.org/2000/svg" version="1.1" xmlns:xlink="http://www.w3.org/1999/xlink" xmlns:svgjs="http://svgjs.com/svgjs"><defs id="SvgjsDefs1002"></defs><g id="SvgjsG1008" transform="matrix(1,0,0,1,0,0)"><svg xmlns="http://www.w3.org/2000/svg" width="288" height="288" fill="currentColor" class="bi bi-file-earmark-spreadsheet-fill" viewBox="0 0 16 16"><path d="M6 12v-2h3v2H6z" fill="#ffffff" class="color000 svgShape"></path><path d="M9.293 0H4a2 2 0 0 0-2 2v12a2 2 0 0 0 2 2h8a2 2 0 0 0 2-2V4.707A1 1 0 0 0 13.707 4L10 .293A1 1 0 0 0 9.293 0zM9.5 3.5v-2l3 3h-2a1 1 0 0 1-1-1zM3 9h10v1h-3v2h3v1h-3v2H9v-2H6v2H5v-2H3v-1h2v-2H3V9z" fill="#ffffff" class="color000 svgShape"></path></svg></g></svg>